<?xml version="1.0" encoding="utf-8"?>
<!-- Generator: Adobe Illustrator 26.0.0, SVG Export Plug-In . SVG Version: 6.00 Build 0)  -->
<svg version="1.1" id="Warstwa_1" xmlns="http://www.w3.org/2000/svg" xmlns:xlink="http://www.w3.org/1999/xlink" x="0px" y="0px"
	 viewBox="0 0 876.2 1080" style="enable-background:new 0 0 876.2 1080;" xml:space="preserve">
<style type="text/css">
	.st0{fill:#F5F5F5;}
</style>
<g>
	<polygon class="st0" points="533.4,796.9 599.5,770.3 590.7,748.6 546.3,766.5 495.9,641.3 739.9,543 790.3,668.2 718.8,697 
		651.8,775.2 633.2,731.5 612.4,739.9 629.7,782.8 645.1,818.9 732.8,716.6 820.7,681.2 752.8,512.6 465.5,628.4 	"/>
	<polygon class="st0" points="87.8,289.9 157.6,305.1 122.9,465.7 145.7,470.6 180.5,310 180.5,310 185.4,287.2 130,275.2 
		156.9,242.3 242.4,260.8 234.4,297.8 208.3,292.1 203.3,314.9 252.2,325.5 270.1,242.9 147.8,216.4 	"/>
	<polygon class="st0" points="695.2,112.6 678.2,160.2 700.3,168 712.7,133.1 732.5,129.5 745.6,144.9 733.2,179.7 755.2,187.6 
		772.1,140 741.6,104.1 	"/>
	<polygon class="st0" points="553.4,74.4 476.3,185.2 413,141.2 311,128 337.2,88.4 318.9,75.7 292.4,113.7 270.7,146.3 
		404.4,163.6 482.1,217.7 585.9,68.6 487.3,0 446.4,0 	"/>
	<polygon class="st0" points="227.8,40.8 286.3,81.5 299.7,62.3 260.4,35 284.7,0 256.2,0 	"/>
	<polygon class="st0" points="739.1,77 761.1,84.8 791.3,0 766.5,0 	"/>
	<polygon class="st0" points="87,998.5 206,1080 247.4,1080 80.9,966 2.9,1080 31.2,1080 	"/>
	
		<rect x="3.1" y="681.4" transform="matrix(0.8698 -0.4935 0.4935 0.8698 -338.9734 101.7639)" class="st0" width="40.3" height="23.4"/>
	<polygon class="st0" points="44.3,594.4 24,605.9 55.5,661.4 55.4,661.4 66.9,681.7 67,681.7 98.5,737.2 118.8,725.6 87.3,670.2 
		142.8,638.7 131.3,618.4 75.8,649.8 	"/>
	<polygon class="st0" points="807.1,273 740.1,352.3 637.8,265.8 683.8,262 681.9,238.7 596.1,245.9 603.3,331.7 626.6,329.7 
		622.7,283.7 742.9,385.2 809.9,305.9 876.2,362 876.2,331.4 	"/>
	<path class="st0" d="M210.5,840.9l-23.3,1.6c1.6,22.6,5.1,44.9,10.4,66.9c4.4,17.7,9.9,35.2,16.7,52.3l21.7-8.6
		C221.7,917.1,213.1,879.4,210.5,840.9"/>
	<path class="st0" d="M367.4,511.3l-8.7,43.1l22.9,4.6l16.6-82.2L316,460.2l-4.6,22.9l43,8.7C285.9,540,234,609.1,207.1,689
		c-13.6,40.3-20.6,82-20.9,124.1l23.4,0.1c0.2-39.6,6.8-78.9,19.6-116.8C254.5,621.5,303.1,556.6,367.4,511.3"/>
	<path class="st0" d="M482.5,382.3c7.4-7.4,17.2-11.1,26.9-11.1c6,0,11.9,1.4,17.4,4.2l17-17c-23.9-16.1-56.7-13.7-77.8,7.5
		c-21.1,21.1-23.6,53.9-7.5,77.8l17-17C468.3,412.2,470.6,394.2,482.5,382.3"/>
	<path class="st0" d="M536.4,436.1c-12,12-30,14.3-44.3,7l-17,17c10.3,7,22.4,10.5,34.4,10.5c15.7,0,31.5-6,43.4-18
		c21.1-21.1,23.6-53.9,7.5-77.8l-17,17C550.6,406.2,548.3,424.2,536.4,436.1"/>
	<path class="st0" d="M360.3,752.2c-17.6,8.1-25.4,29-17.3,46.6l19.4,42.3l10.8,23.6l21.2-9.7l-10.8-23.6l-19.4-42.3
		c-2.7-5.9-0.1-13,5.8-15.7c5.9-2.7,13-0.1,15.7,5.8l19.4,42.3l20.6,44.9l-21.5,9.8l0-0.1l-21.2,9.7l9.8,21.3l21.4-9.8l38.8,84.6
		l21.2-9.7l-38.8-84.6l21.4-9.8l-30.3-66.1l-19.4-42.3C398.8,751.9,377.9,744.1,360.3,752.2"/>
	<path class="st0" d="M622.5,1002.2l11-12.6c25-28.4,63.8-37.5,97.6-26.1l16.4-18.7c-44.4-19.2-98-8.8-131.6,29.4l-11,12.6
		L588.2,972l-15.4,17.5l102.1,89.8h35.4L622.5,1002.2z"/>
	<path class="st0" d="M785.9,972l12.2-13.9l-17.5-15.4l-12.2,13.9c0,0,0,0,0,0l-15.5,17.7c0,0,0,0,0,0l-11.5,13.1l17.5,15.4
		l11.5-13.1c21.9,24.9,28.1,59.3,17.7,89.7h24.4C822.3,1042.2,813.2,1001.4,785.9,972"/>
</g>
</svg>
