<svg xmlns="http://www.w3.org/2000/svg" viewBox="0 0 1538.23 1087.37"><defs><style>.cls-1{opacity:0.1;}.cls-2{fill:#fff;}</style></defs><title>icon-layer2</title><g id="Warstwa_2" data-name="Warstwa 2"><g id="Warstwa_1-2" data-name="Warstwa 1"><g id="white" class="cls-1"><polygon class="cls-2" points="36.52 172.65 69.42 158.32 64.73 147.54 42.61 157.17 15.48 94.86 136.94 41.98 164.06 104.29 128.47 119.79 95.85 160.05 85.85 138.34 75.51 142.84 84.81 164.21 93.08 182.15 135.8 129.42 179.54 110.38 143.03 26.5 0 88.77 36.52 172.65"/><polygon class="cls-2" points="1071.48 275.13 1103.02 292.25 1108.63 281.92 1087.43 270.4 1119.87 210.69 1236.27 273.92 1203.84 333.63 1169.72 315.1 1117.91 314.15 1128.87 292.91 1118.97 287.53 1107.84 308.01 1098.78 325.56 1166.63 326.81 1208.56 349.58 1252.22 269.2 1115.15 194.74 1071.48 275.13"/><polygon class="cls-2" points="781.62 632.23 812.06 613.22 805.83 603.25 785.37 616.02 749.38 558.37 861.75 488.22 897.74 545.87 864.8 566.43 838.45 611.05 825.37 591.05 815.81 597.02 828.15 616.79 838.96 633.32 873.47 574.89 913.95 549.62 865.5 472.02 733.17 554.62 781.62 632.23"/><polygon class="cls-2" points="145.54 928.06 180.65 935.5 183.08 923.99 159.49 918.99 173.57 852.51 303.16 879.96 289.08 946.45 251.09 938.4 201.16 952.24 205.62 928.76 194.59 926.43 189.76 949.23 186.08 968.63 251.47 950.5 298.15 960.39 317.11 870.89 164.5 838.56 145.54 928.06"/><polygon class="cls-2" points="1301.5 494.4 1313.57 528.31 1235.63 556.06 1239.57 567.14 1317.52 539.39 1317.52 539.39 1328.6 535.44 1319.02 508.55 1340.23 511.31 1355.01 552.8 1337.06 559.2 1332.55 546.52 1321.47 550.47 1329.92 574.22 1370.04 559.94 1348.9 500.57 1301.5 494.4"/><polygon class="cls-2" points="193.88 788.8 213.07 758.35 283.07 802.46 289.34 792.51 219.34 748.4 209.39 742.12 194.16 766.28 183.22 747.9 206.71 710.63 222.83 720.79 215.66 732.17 225.61 738.44 239.05 717.11 203.03 694.41 169.43 747.72 193.88 788.8"/><polygon class="cls-2" points="809.15 966.82 838.33 945.75 886.77 1012.82 896.31 1005.94 847.87 938.86 847.87 938.86 840.98 929.32 817.83 946.04 814.55 924.9 850.26 899.11 861.42 914.56 850.52 922.44 857.4 931.97 877.84 917.21 852.91 882.69 801.83 919.59 809.15 966.82"/><polygon class="cls-2" points="582.88 351.34 611.63 373 561.83 439.08 571.23 446.16 621.02 380.08 621.02 380.08 628.1 370.69 605.3 353.5 624.53 344.14 659.71 370.64 648.24 385.86 637.5 377.77 630.42 387.16 650.55 402.34 676.18 368.33 625.85 330.4 582.88 351.34"/><polygon class="cls-2" points="1381.55 139.43 1413.76 155.47 1376.89 229.54 1387.42 234.78 1424.3 160.71 1429.54 150.18 1403.98 137.46 1421.17 124.73 1460.6 144.36 1452.11 161.42 1440.07 155.43 1434.83 165.96 1457.39 177.19 1476.37 139.07 1419.96 110.99 1381.55 139.43"/><polygon class="cls-2" points="1357.48 892.13 1389.02 909.25 1394.63 898.92 1373.43 887.4 1405.87 827.69 1522.27 890.92 1489.84 950.63 1455.72 932.1 1403.91 931.15 1414.87 909.91 1404.97 904.53 1393.84 925.01 1384.78 942.56 1452.63 943.81 1494.56 966.58 1538.22 886.2 1401.15 811.74 1357.48 892.13"/><polygon class="cls-2" points="502.51 1087.37 499.76 1051.48 582.25 1045.15 581.36 1033.43 498.86 1039.75 498.86 1039.75 487.13 1040.65 489.31 1069.12 469.57 1060.89 466.2 1016.97 485.2 1015.51 486.23 1028.92 497.96 1028.03 496.03 1002.89 453.57 1006.14 458.39 1068.97 502.51 1087.37"/><polygon class="cls-2" points="615.77 0 627.84 33.91 549.9 61.66 553.84 72.74 631.79 44.99 631.79 44.99 642.87 41.04 633.29 14.15 654.5 16.91 669.28 58.4 651.33 64.8 646.82 52.12 635.74 56.07 644.19 79.82 684.3 65.54 663.17 6.17 615.77 0"/></g></g></g></svg>