<?xml version="1.0" encoding="utf-8"?>
<!-- Generator: Adobe Illustrator 26.0.0, SVG Export Plug-In . SVG Version: 6.00 Build 0)  -->
<svg version="1.1" id="Warstwa_1" xmlns="http://www.w3.org/2000/svg" xmlns:xlink="http://www.w3.org/1999/xlink" x="0px" y="0px"
	 viewBox="0 0 892 1079.3" style="enable-background:new 0 0 892 1079.3;" xml:space="preserve">
<style type="text/css">
	.st0{fill:#F5F5F5;}
</style>
<g>
	<polygon class="st0" points="398.3,490.9 468,505.7 472.8,482.8 426,472.9 453.9,340.9 711.3,395.3 683.3,527.3 607.9,511.4 
		508.7,538.9 517.6,492.3 495.7,487.6 486.1,532.9 478.8,571.5 608.6,535.4 701.3,555 738.9,377.3 435.9,313.2 	"/>
	<polygon class="st0" points="481,674.4 399.2,752.9 471,827.8 374.2,920.5 375.2,874.3 351.9,873.8 350,959.9 436.1,961.7 
		436.6,938.3 390.4,937.4 504,828.5 432.2,753.6 497.2,691.3 	"/>
	
		<rect x="497.5" y="633.9" transform="matrix(0.7221 -0.6918 0.6918 0.7221 -299.9123 544.6603)" class="st0" width="60.8" height="23.4"/>
	<polygon class="st0" points="300.3,211.2 213.6,372.6 200.3,328.4 177.9,335.1 202.8,417.5 285.2,392.7 278.5,370.4 234.2,383.7 
		320.9,222.3 	"/>
	
		<rect x="301.8" y="151.3" transform="matrix(0.4731 -0.881 0.881 0.4731 35.3296 384.947)" class="st0" width="75.4" height="23.4"/>
	<polygon class="st0" points="135.9,547.1 137.1,513.1 94.2,486.4 81.9,506.2 113.3,525.8 112.6,546 94.8,555.5 63.3,535.8 
		51,555.7 93.8,582.4 123.3,566.7 201.5,615.6 213.9,595.8 	"/>
	
		<rect x="694.6" y="938.4" transform="matrix(0.8251 -0.565 0.565 0.8251 -410.3342 574.8216)" class="st0" width="57.2" height="23.4"/>
	<polygon class="st0" points="193.1,146.1 170.7,182.6 127.9,181.3 123.3,172.8 102.8,183.9 113.8,204.3 183.5,206.3 220.1,146.9 
		209.1,126.5 188.5,137.6 	"/>
	<polygon class="st0" points="106.5,141.6 128.9,105.2 171.7,106.5 177.4,117 198,106 185.8,83.5 116.1,81.5 79.5,140.9 91.7,163.3 
		112.2,152.2 	"/>
	<polygon class="st0" points="513.2,189.2 610.9,270.7 660.8,266.1 656.3,216.2 558.6,134.8 543.6,152.7 633.9,228 635.4,245 
		618.4,246.5 528.2,171.3 	"/>
	
		<rect x="472.6" y="127.1" transform="matrix(0.6404 -0.7681 0.7681 0.6404 76.1137 440.1455)" class="st0" width="70.9" height="23.4"/>
	<path class="st0" d="M619.5,62.1c39.1,16.6,80.2,26.7,122.2,30.1l1.9-23.3c-39.5-3.2-78.2-12.8-115-28.4
		C603,29.7,578.8,16.1,556.5,0h-37.9C548.7,25.5,582.6,46.5,619.5,62.1"/>
	<path class="st0" d="M771.3,70.2l-0.2,23.4c22.6,0.1,45.2-1.7,67.5-5.4c18-3,35.8-7.3,53.4-12.8l-7-22.3
		C848.1,64.7,809.8,70.4,771.3,70.2"/>
	<path class="st0" d="M84.1,775.9l-2.9,23.2c22.5,2.8,45.1,3.7,67.6,2.6c18.2-0.9,36.4-3,54.5-6.4l-4.3-23
		C161,779.5,122.3,780.7,84.1,775.9"/>
	<path class="st0" d="M56.7,771.4c-19.3-3.9-38.3-9.4-56.7-16.3V780c17,6,34.4,10.8,52.1,14.3L56.7,771.4z"/>
	<path class="st0" d="M270.3,625.7l22.3,13.9l12.4-19.8l-22.3-13.9c-18.3-11.5-42.6-5.8-54,12.5c-11.5,18.3-5.8,42.6,12.5,54
		l22.3,13.9l12.4-19.8l-22.3-13.9c-7.4-4.6-9.7-14.4-5.1-21.9C253,623.3,262.8,621.1,270.3,625.7"/>
	<path class="st0" d="M616.9,794.9c23.2-15.9,55-9.9,70.9,13.3c11,16.1,12,36.7,2.4,53.8l-2.8,5l11.8,28.3L680.7,908l-22.1-21.2
		l-5.6,0.8c-19.4,2.8-38.3-5.6-49.3-21.7C587.8,842.6,593.7,810.8,616.9,794.9 M650.4,911.2l27.8,26.7l49.9-34.2l-14.9-35.6
		c11-23.8,8.8-51.3-6.2-73.2c-23.2-33.8-69.5-42.5-103.4-19.3c-33.8,23.2-42.5,69.5-19.3,103.4C599.4,900.9,624.3,912.9,650.4,911.2
		"/>
	<path class="st0" d="M222.8,1015.2c28.7,4.4,57.6-12,67.7-40.4c11.5-32.1-5.3-67.6-37.5-79.1c-32.1-11.5-67.6,5.3-79.1,37.5
		c-5.7,15.9-4.6,33.7,3.1,48.8l20.8-10.6c-4.8-9.5-5.5-20.3-1.9-30.4c7.1-20,29.2-30.5,49.3-23.3c20,7.1,30.5,29.2,23.3,49.3
		c-7.1,20-29.2,30.5-49.3,23.3l-11-3.9l-33.2,93h24.8L222.8,1015.2z"/>
</g>
</svg>
