<svg xmlns="http://www.w3.org/2000/svg" viewBox="0 0 1538.19 1087.94"><defs><style>.cls-1{opacity:0.1;}.cls-2{fill:#fff;}</style></defs><title>icon-layer1</title><g id="Warstwa_2" data-name="Warstwa 2"><g id="Warstwa_1-2" data-name="Warstwa 1"><g id="yellow" class="cls-1"><rect class="cls-2" x="1199.63" y="984.2" width="11.76" height="30.64" transform="translate(-355.55 1123.63) rotate(-44.21)"/><path class="cls-2" d="M1299.85,641.44l-2,11.59a199.18,199.18,0,0,0,61.53,1l-1.62-11.65a187.38,187.38,0,0,1-57.9-1"/><path class="cls-2" d="M1157.49,525.1l20,9.43,5-10.64-38.19-18-18,38.19,10.64,5,9.42-20a199.56,199.56,0,0,0,136.89,120.84l2.88-11.4a187.8,187.8,0,0,1-128.7-113.43"/><polygon class="cls-2" points="536.04 152.16 481.94 170.46 498.68 219.97 434.78 241.59 445.1 220.72 434.56 215.51 415.34 254.37 454.2 273.59 459.42 263.05 438.55 252.73 513.6 227.34 496.85 177.83 539.81 163.3 536.04 152.16"/><rect class="cls-2" x="548.26" y="143.17" width="30.64" height="11.76" transform="translate(-18.04 188.48) rotate(-18.69)"/><polygon class="cls-2" points="1220.17 1023.04 1259.99 1063.98 1297.46 1027.54 1344.5 1075.9 1321.22 1075.58 1321.06 1087.34 1364.41 1087.94 1365.01 1044.59 1353.25 1044.42 1352.93 1067.7 1297.69 1010.91 1260.23 1047.35 1228.61 1014.84 1220.17 1023.04"/><polygon class="cls-2" points="541.93 901.04 528.45 845.55 476.47 858.18 460.54 792.63 480.79 804.64 487.1 794.55 449.38 772.17 426.13 809.37 436.37 815.44 448.85 795.47 467.56 872.45 519.53 859.82 530.24 903.89 541.93 901.04"/><rect class="cls-2" x="536.46" y="913.46" width="12.04" height="30.64" transform="translate(-203.93 154.32) rotate(-13.66)"/><polygon class="cls-2" points="893.7 244.7 852.54 162.12 874.61 169.51 878.34 158.35 837.23 144.6 823.47 185.71 834.62 189.44 842.01 167.37 883.18 249.95 893.7 244.7"/><rect class="cls-2" x="896.28" y="255.85" width="11.76" height="37.97" transform="translate(-27.85 431.37) rotate(-26.5)"/><polygon class="cls-2" points="804.05 706.16 760.37 787.43 753.66 765.14 742.4 768.53 754.89 810.05 796.41 797.56 793.02 786.29 770.73 793 814.41 711.73 804.05 706.16"/><rect class="cls-2" x="804.8" y="675.97" width="37.97" height="11.76" transform="translate(-166.79 1084.73) rotate(-61.75)"/><polygon class="cls-2" points="267.68 473.17 278.07 564.85 259.87 550.35 252.54 559.55 286.45 586.56 313.46 552.65 304.26 545.32 289.76 563.52 279.37 471.85 267.68 473.17"/><rect class="cls-2" x="264.18" y="422.97" width="11.76" height="37.97" transform="translate(-48.07 33.24) rotate(-6.47)"/><polygon class="cls-2" points="983.95 886.82 1036.74 865.04 1016.81 816.72 1079.17 791 1070.23 812.49 1081.1 817 1097.75 776.97 1057.72 760.32 1053.2 771.19 1074.69 780.12 1001.45 810.34 1021.38 858.65 979.46 875.95 983.95 886.82"/><rect class="cls-2" x="941.35" y="885.83" width="30.64" height="11.76" transform="translate(-267.76 432.22) rotate(-22.42)"/><path class="cls-2" d="M417.44,442.91l3-11.38a199.09,199.09,0,0,0-61.23-6.1l.65,11.75a187.39,187.39,0,0,1,57.62,5.74"/><path class="cls-2" d="M549.73,570.59l-19.18-11-5.87,10.19,36.58,21.07,21.07-36.58-10.19-5.87-11,19.16A199.56,199.56,0,0,0,434.63,435.8l-3.81,11.13A187.79,187.79,0,0,1,549.73,570.59"/><path class="cls-2" d="M353.48,28.37a187.66,187.66,0,0,1,7.69,116.07L350.41,125.1l-10.28,5.72,20.53,36.88,36.88-20.53-5.72-10.28L372.5,147.65A199,199,0,0,0,352.84,0H339.2a188.5,188.5,0,0,1,14.28,28.37"/><polygon class="cls-2" points="1493 247.22 1423.51 307.92 1425.08 284.7 1413.34 283.91 1410.43 327.16 1453.68 330.08 1454.47 318.35 1431.25 316.78 1500.74 256.07 1493 247.22"/><rect class="cls-2" x="1501.04" y="225.53" width="37.97" height="11.76" transform="translate(223.05 1057.18) rotate(-41.14)"/><path class="cls-2" d="M45,442.86l-9.92,6.32a199.09,199.09,0,0,0,40.7,46.16l7.52-9A187.39,187.39,0,0,1,45,442.86"/><path class="cls-2" d="M35,259.28l6.53,21.15L52.78,277,40.33,236.63,0,249.08l3.47,11.24,21.13-6.52a199.56,199.56,0,0,0,3,182.57l10.37-5.56A187.79,187.79,0,0,1,35,259.28"/><polygon class="cls-2" points="1315.04 119.38 1333.3 28.94 1346.17 48.33 1355.97 41.82 1331.99 5.7 1295.87 29.68 1302.38 39.48 1321.77 26.61 1303.51 117.05 1315.04 119.38"/><rect class="cls-2" x="1284.2" y="142.47" width="37.97" height="11.76" transform="translate(899.78 1396.38) rotate(-78.58)"/></g></g></g></svg>