<svg xmlns="http://www.w3.org/2000/svg" width="30.94cm" height="21.84cm" viewBox="0 0 877 619">
  <defs>
    <style>
      .b {
        fill: #ffffff;
        opacity: 0.2;
      }

      .c {
        fill: none;
      }

      .d {
        fill: #fff;
      opacity: 0.2;
      }

      .e {
        fill: #fff;
      opacity: 0.2;
      }
    </style>
  </defs>
  <g>
    <path class="b" d="M16.82,256.35l5.85-2.67a107.78,107.78,0,0,1,6.27,17.57,110.93,110.93,0,0,1,2.81,14.86l-6.39.76a102.86,102.86,0,0,0-8.54-30.52" transform="translate(15 7.72)"/>
    <rect class="c" x="15" y="7.72" width="841.89" height="595.28"/>
    <path class="d" d="M239,211.05l-6.69,2.75,2.45,5.95L241.4,217a10.81,10.81,0,1,0-8.23-20l-6.69,2.75,2.45,6,6.69-2.75a4.37,4.37,0,0,1,3.33,8.09" transform="translate(15 7.72)"/>
    <rect class="c" x="15" y="7.72" width="841.89" height="595.28"/>
    <path class="d" d="M673.76,465.1,668,460.69l-3.92,5.11,5.73,4.4A10.81,10.81,0,1,0,683,453.07l-5.73-4.41-3.93,5.1,5.73,4.41a4.37,4.37,0,1,1-5.33,6.93" transform="translate(15 7.72)"/>
    <rect class="c" x="15" y="7.72" width="841.89" height="595.28"/>
    <path class="d" d="M27.79,468.67l-4.71,5.48,4.87,4.2,4.72-5.48a10.81,10.81,0,0,0-16.38-14.1l-4.72,5.48,4.88,4.2L21.17,463a4.37,4.37,0,0,1,6.62,5.7" transform="translate(15 7.72)"/>
    <rect class="c" x="15" y="7.72" width="841.89" height="595.28"/>
    <path class="d" d="M350.92,503.52l1.85,7,6.23-1.65-1.85-7a10.81,10.81,0,0,0-20.9,5.53l1.84,7,6.23-1.64-1.85-7a4.37,4.37,0,1,1,8.45-2.24" transform="translate(15 7.72)"/>
    <rect class="c" x="15" y="7.72" width="841.89" height="595.28"/>
    <path class="d" d="M183.5,131.62a14.06,14.06,0,0,1,14.68,23.12l-1.09,1.12,1.11,8.37-5.84,2.05L188,159l-1.56-.19a14.06,14.06,0,0,1-2.94-27.23m.56,33.36,5.48,9.11,15.73-5.51L203.87,158A20.49,20.49,0,1,0,184.06,165" transform="translate(15 7.72)"/>
    <rect class="c" x="15" y="7.72" width="841.89" height="595.28"/>
    <path class="d" d="M544.69,307.8a14.06,14.06,0,0,1,10.52-25.28l1.54.25,6.23-5.71,5,3.61-3.43,7.72.74,1.39a14.06,14.06,0,0,1-20.62,18m27-19.59L576,278.5l-13.53-9.73L554.65,276a20.5,20.5,0,1,0,17,12.25" transform="translate(15 7.72)"/>
    <rect class="c" x="15" y="7.72" width="841.89" height="595.28"/>
    <path class="d" d="M584.36,81a14.06,14.06,0,0,1-23.58,13.92l-1.08-1.13-8.41.84-1.85-5.91,7.37-4.12.25-1.54A14.06,14.06,0,0,1,584.36,81M551,80.46l-9.29,5.18,5,15.9,10.58-1.05a20.49,20.49,0,1,0-6.29-20" transform="translate(15 7.72)"/>
    <rect class="c" x="15" y="7.72" width="841.89" height="595.28"/>
    <path class="b" d="M800.51,233.13l-2.16-2.39-21.54,19.45,4.31,4.78,17-15.34a17.06,17.06,0,1,0-6.78-14l6.44.16a10.5,10.5,0,0,1,3.5-7.63,10.62,10.62,0,1,1-.77,15" transform="translate(15 7.72)"/>
    <path class="b" d="M38.17,362.92l2.22-2.32-21-20.06L15,345.2,31.51,361A17.05,17.05,0,1,0,45,353.22l.32,6.43a10.62,10.62,0,1,1-7.15,3.27" transform="translate(15 7.72)"/>
    <rect class="c" x="15" y="7.72" width="841.89" height="595.28"/>
    <path class="b" d="M570.64,210l-2.83-1.53L554,234l5.66,3.06,10.88-20.15A17.07,17.07,0,1,0,559.48,206l6.11-2a10.52,10.52,0,0,1,.75-8.36,10.62,10.62,0,1,1,4.3,14.39" transform="translate(15 7.72)"/>
    <path class="b" d="M482.06,435.84l-3.2-.41-3.69,28.8,6.38.82,2.92-22.72a17.05,17.05,0,1,0-14.28-6.24l5-4.07a10.62,10.62,0,1,1,6.88,3.82" transform="translate(15 7.72)"/>
    <path class="b" d="M212.38,512.63l3.18.46,4.16-28.74-6.38-.92-3.27,22.66a17.07,17.07,0,1,0,14.17,6.47l-5.05,4a10.52,10.52,0,0,1,2.18,8.11,10.62,10.62,0,1,1-9-12" transform="translate(15 7.72)"/>
    <rect class="c" x="15" y="7.72" width="841.89" height="595.28"/>
    <path class="d" d="M387.28,474.29a10.47,10.47,0,0,1,12.2-1.91l4.7-4.7a16.93,16.93,0,0,0-23.51,23.51l4.7-4.7a10.5,10.5,0,0,1,1.91-12.2" transform="translate(15 7.72)"/>
    <path class="d" d="M402.12,489.13a10.51,10.51,0,0,1-12.2,1.92l-4.69,4.69a16.93,16.93,0,0,0,23.5-23.5L404,476.93a10.51,10.51,0,0,1-1.92,12.2" transform="translate(15 7.72)"/>
    <path class="d" d="M798.45,33.77A10.5,10.5,0,0,1,800,21.51l-3.23-5.79a16.93,16.93,0,0,0,16.17,29L809.66,39a10.51,10.51,0,0,1-11.21-5.19" transform="translate(15 7.72)"/>
    <path class="d" d="M816.79,23.57a10.52,10.52,0,0,1-1.5,12.26l3.22,5.8a16.93,16.93,0,0,0-16.16-29.05l3.23,5.8a10.52,10.52,0,0,1,11.21,5.19" transform="translate(15 7.72)"/>
    <path class="d" d="M83.06,247.45a10.49,10.49,0,0,1,1.5-12.26l-3.23-5.8A16.93,16.93,0,0,0,97.5,258.44l-3.23-5.8a10.53,10.53,0,0,1-11.21-5.19" transform="translate(15 7.72)"/>
    <path class="d" d="M101.4,237.25a10.51,10.51,0,0,1-1.51,12.26l3.23,5.79a16.92,16.92,0,0,0-16.16-29l3.23,5.8a10.51,10.51,0,0,1,11.21,5.19" transform="translate(15 7.72)"/>
    <rect class="c" x="15" y="7.72" width="841.89" height="595.28"/>
    <path class="d" d="M344.61,258.29a10.5,10.5,0,0,1,12.2-1.92l4.69-4.69a16.92,16.92,0,0,0-23.5,23.5l4.69-4.69a10.49,10.49,0,0,1,1.92-12.2" transform="translate(15 7.72)"/>
    <path class="d" d="M359.44,273.12a10.49,10.49,0,0,1-12.2,1.92l-4.69,4.69a16.92,16.92,0,0,0,23.5-23.5l-4.69,4.69a10.49,10.49,0,0,1-1.92,12.2" transform="translate(15 7.72)"/>
    <path class="d" d="M314.25,355A9.7,9.7,0,0,0,302,361.11l-4.12,12.15-2.3,6.77,6.1,2.07,2.29-6.77,4.12-12.15a3.26,3.26,0,0,1,6.18,2.09l-4.13,12.15-4.37,12.89-6.17-2.09v0l-6.1-2.07-2.07,6.12,6.13,2.08-8.24,24.29,6.1,2.07,8.24-24.29,6.13,2.08,6.44-19,4.12-12.15a9.7,9.7,0,0,0-6.07-12.3" transform="translate(15 7.72)"/>
    <path class="d" d="M765.24,439.42a9.73,9.73,0,0,0,12.76-5l5.1-11.77,2.84-6.56-5.9-2.56L777.19,420l-5.1,11.78a3.26,3.26,0,0,1-6-2.59l5.11-11.78L776.63,405l6,2.59v0l5.9,2.56,2.58-5.93-6-2.58,10.21-23.53-5.91-2.56-10.2,23.53-6-2.57-8,18.39-5.1,11.78a9.7,9.7,0,0,0,5,12.75" transform="translate(15 7.72)"/>
    <path class="d" d="M441,35.12a9.7,9.7,0,0,0-13.66,1.2l-8.24,9.84-4.59,5.48,4.94,4.13L424,50.29l8.24-9.83a3.25,3.25,0,1,1,5,4.18L429,54.48l-8.74,10.43-5-4.18v0l-4.93-4.13-4.15,5,5,4.16L394.7,85.36l4.94,4.13,16.47-19.67,5,4.16L434,58.61l8.24-9.84A9.7,9.7,0,0,0,441,35.12" transform="translate(15 7.72)"/>
    <path class="b" d="M228.53,242.35l1.62-6.23A108.42,108.42,0,0,0,211.76,233a110.54,110.54,0,0,0-15.12-.2l.35,6.43a102.38,102.38,0,0,1,31.54,3.13" transform="translate(15 7.72)"/>
    <path class="b" d="M301,312.2l-10.5-6-3.21,5.58,20,11.52,11.52-20L313.2,300l-6,10.49a109.2,109.2,0,0,0-69.24-72.06l-2.08,6.09A102.77,102.77,0,0,1,301,312.2" transform="translate(15 7.72)"/>
    <path class="d" d="M242.32,328.38a14.06,14.06,0,0,1,11.81,24.7l-1.22,1,.1,8.45-6,1.33-3.46-7.71-1.53-.38a14.06,14.06,0,0,1,.34-27.38m-3.43,33.18,4.35,9.7,16.27-3.59-.13-10.62a20.5,20.5,0,1,0-20.49,4.51" transform="translate(15 7.72)"/>
    <rect class="c" x="15" y="7.72" width="841.89" height="595.28"/>
    <path class="d" d="M617.92,484.63a14.06,14.06,0,0,1,8.94,25.88l-1.33.84-.85,8.41-6.16.63-2.56-8-1.47-.54a14.06,14.06,0,0,1,3.43-27.17m-7.17,32.58L614,527.34l16.57-1.72L631.63,515a20.49,20.49,0,1,0-20.88,2.17" transform="translate(15 7.72)"/>
    <rect class="c" x="15" y="7.72" width="841.89" height="595.28"/>
    <polygon class="b" points="87.97 150.61 105.97 142.76 103.4 136.86 91.3 142.14 76.44 108.04 142.9 79.08 157.76 113.18 138.28 121.67 120.44 143.71 114.96 131.83 109.3 134.29 114.4 145.99 118.92 155.8 142.29 126.94 166.23 116.51 146.23 70.61 67.97 104.71 87.97 150.61"/>
    <polygon class="b" points="601.34 158.25 618.6 167.62 621.67 161.96 610.07 155.66 627.82 122.98 691.53 157.56 673.79 190.25 655.11 180.11 626.76 179.6 632.75 167.97 627.33 165.03 621.25 176.24 616.29 185.85 653.42 186.52 676.37 198.98 700.26 154.98 625.23 114.25 601.34 158.25"/>
    <polygon class="b" points="442.76 353.73 459.42 343.33 456.01 337.87 444.81 344.86 425.11 313.32 486.59 274.91 506.3 306.45 488.28 317.71 473.86 342.13 466.7 331.19 461.47 334.46 468.22 345.27 474.14 354.32 493.02 322.34 515.17 308.5 488.64 266.04 416.24 311.27 442.76 353.73"/>
    <polygon class="b" points="94.69 515.73 113.9 519.8 115.23 513.5 102.32 510.77 110.02 474.38 180.94 489.39 173.25 525.77 152.46 521.38 125.13 528.96 127.57 516.11 121.53 514.83 118.89 527.31 116.88 537.93 152.66 528 178.21 533.41 188.57 484.42 105.05 466.75 94.69 515.73"/>
    <polygon class="d" points="293.13 201.31 300.56 207.03 313.43 201.74 310.98 195.78 301.54 199.66 297.13 196.27 297.87 190.75 307.31 186.87 304.86 180.91 291.99 186.21 290.77 195.32 267.26 205 269.71 210.95 293.13 201.31"/>
    <polygon class="d" points="723.5 497.99 722.27 507.28 733.3 515.77 737.23 510.67 729.14 504.45 729.87 498.93 735.02 496.81 743.11 503.03 747.03 497.92 736 489.44 727.5 492.95 707.35 477.45 703.42 482.55 723.5 497.99"/>
    <polygon class="d" points="69.84 443.1 79.05 444.85 88.13 434.3 83.25 430.1 76.6 437.83 71.13 436.79 69.29 431.54 75.95 423.81 71.07 419.61 61.99 430.15 65.02 438.83 48.43 458.1 53.31 462.3 69.84 443.1"/>
    <polygon class="d" points="353.77 470.1 360.42 463.5 356.86 450.04 350.64 451.68 353.25 461.55 349.3 465.47 343.93 464.01 341.32 454.15 335.1 455.8 338.65 469.25 347.53 471.66 354.02 496.24 360.25 494.59 353.77 470.1"/>
    <polygon class="d" points="531.4 221.9 539.5 217.18 539.44 203.26 533.01 203.29 533.05 213.49 528.24 216.29 523.41 213.53 523.37 203.33 516.93 203.35 516.99 217.28 524.97 221.84 525.07 247.26 531.51 247.23 531.4 221.9"/>
    <path class="d" d="M517.81,257.05l0,7.23,6.44,0,0-7.23a10.81,10.81,0,1,0-21.62.09l0,7.23,6.44,0,0-7.23a4.37,4.37,0,0,1,8.74,0" transform="translate(15 7.72)"/>
    <path class="d" d="M408.52,190.06l-3.72-4.91,3.67-2.78a31.59,31.59,0,0,0,7.89-41.53l4.07-3.09-3.89-5.13-4.07,3.09h0l-5.17,3.92h0l-3.82,2.9,3.88,5.13,3.83-2.9a25.13,25.13,0,0,1-6.61,32.48L400.91,180l-30.34-40,3.68-2.78A25.13,25.13,0,0,1,402,135.54l5.46-4.15a31.6,31.6,0,0,0-37.14.71l-3.68,2.78L363,130l-5.13,3.89L403.39,194Z" transform="translate(15 7.72)"/>
    <path class="d" d="M112.1,286.88l-2.39,5.67-4.24-1.78A31.59,31.59,0,0,0,65.55,304.7l-4.7-2-2.5,5.93,4.71,2h0l6,2.51h0L73.47,315,76,309.08l-4.43-1.86A25.14,25.14,0,0,1,103,296.7l4.25,1.79L87.74,344.77,83.49,343a25.13,25.13,0,0,1-15.36-23.22l-6.32-2.66A31.59,31.59,0,0,0,81,348.91l4.25,1.79-2.39,5.67,5.93,2.5L118,289.38Z" transform="translate(15 7.72)"/>
    <path class="b" d="M766.27,218.34l-6,1.51-1.14-4.47A31.58,31.58,0,0,0,724,191.93l-1.26-5-6.24,1.58,1.26,4.95h0l1.59,6.29h0l1.18,4.66,6.24-1.58-1.18-4.66A25.13,25.13,0,0,1,752.93,217l1.14,4.46L705.4,233.78l-1.14-4.47a25.16,25.16,0,0,1,9.28-26.26l-1.69-6.64A31.61,31.61,0,0,0,698,230.89l1.14,4.47-6,1.51,1.58,6.24,73.09-18.53Z" transform="translate(15 7.72)"/>
    <path class="d" d="M537,407.71l-3.68-4.94,3.7-2.75a31.6,31.6,0,0,0,8.22-41.47l4.09-3.05-3.85-5.16-4.09,3.05h0l-5.21,3.88h0l-3.85,2.87,3.85,5.16,3.85-2.87a25.15,25.15,0,0,1-6.87,32.43l-3.7,2.75-30-40.25,3.69-2.75a25.13,25.13,0,0,1,27.8-1.47l5.5-4.1a31.59,31.59,0,0,0-37.15.41l-3.69,2.75L492,347.27l-5.17,3.85,45.08,60.44Z" transform="translate(15 7.72)"/>
    <path class="b" d="M711.49,350.87l-1.1,6.34a108.8,108.8,0,0,0,33.67.55l-.88-6.37a102.66,102.66,0,0,1-31.69-.52" transform="translate(15 7.72)"/>
    <path class="b" d="M633.56,287.22l11,5.16,2.74-5.83-20.9-9.83-9.84,20.9,5.83,2.74,5.15-10.95a109.17,109.17,0,0,0,74.94,66.11l1.57-6.24a102.78,102.78,0,0,1-70.45-62.06" transform="translate(15 7.72)"/>
    <path class="b" d="M787.37,476.14l-5.73-2.94a109.19,109.19,0,0,0-7.07,17.26,111.33,111.33,0,0,0-3.49,14.72l6.35,1.05a102.31,102.31,0,0,1,9.94-30.09" transform="translate(15 7.72)"/>
    <rect class="c" x="15" y="7.72" width="841.89" height="595.28"/>
    <polygon class="e" points="308.39 90.93 278.78 100.95 287.96 128.05 252.99 139.89 258.63 128.47 252.86 125.62 242.35 146.89 263.62 157.4 266.47 151.63 255.05 145.99 296.12 132.08 286.95 104.99 310.45 97.03 308.39 90.93"/>
    <rect class="e" x="300.08" y="78.28" width="16.77" height="6.44" transform="translate(5.16 110.97) rotate(-18.71)"/>
    <polygon class="b" points="701.94 563.22 730.34 576.28 742.29 550.3 775.83 565.72 763.88 570.14 766.12 576.18 788.37 567.95 780.14 545.7 774.1 547.93 778.52 559.88 739.13 541.76 727.18 567.74 704.63 557.37 701.94 563.22"/>
    <rect class="b" x="671.6" y="537.99" width="6.44" height="16.77" transform="translate(-88.54 938.89) rotate(-65.3)"/>
    <polygon class="b" points="311.73 500.78 304.34 470.41 275.9 477.33 267.17 441.46 278.26 448.03 281.71 442.51 261.06 430.27 248.34 450.63 253.94 453.95 260.77 443.02 271.02 485.15 299.46 478.23 305.33 502.34 311.73 500.78"/>
    <rect class="b" x="293.74" y="499.86" width="6.59" height="16.77" transform="translate(-96.71 92.33) rotate(-13.67)"/>
    <polygon class="b" points="719.05 7.72 715.14 35.89 743.47 39.82 738.4 76.39 730.72 66.23 725.58 70.11 739.9 89.04 758.82 74.72 754.94 69.59 744.78 77.27 750.73 34.33 722.4 30.4 725.55 7.72 719.05 7.72"/>
    <polygon class="e" points="504.15 141.52 481.61 96.34 493.69 100.38 495.73 94.27 473.22 86.75 465.7 109.25 471.81 111.29 475.85 99.21 498.39 144.4 504.15 141.52"/>
    <rect class="e" x="490.56" y="139.9" width="6.44" height="20.78" transform="translate(-0.16 243.96) rotate(-26.51)"/>
    <polygon class="e" points="455.15 394.08 431.26 438.57 427.59 426.38 421.42 428.23 428.27 450.95 450.99 444.11 449.13 437.94 436.93 441.62 460.82 397.13 455.15 394.08"/>
    <rect class="e" x="440.56" y="369.84" width="20.78" height="6.44" transform="translate(-76.06 601.57) rotate(-61.76)"/>
    <polygon class="b" points="161.57 266.66 167.27 316.83 157.31 308.9 153.3 313.94 171.86 328.71 186.64 310.15 181.6 306.14 173.67 316.1 167.97 265.93 161.57 266.66"/>
    <rect class="b" x="144.65" y="231.46" width="6.44" height="20.78" transform="translate(-11.37 25.97) rotate(-6.48)"/>
    <polygon class="d" points="647.31 235.93 665.17 266.1 678.54 269.53 681.97 256.15 664.11 225.98 658.57 229.26 675.07 257.13 673.91 261.69 669.35 260.52 652.85 232.65 647.31 235.93"/>
    <rect class="d" x="625.85" y="211.42" width="19.55" height="6.44" transform="translate(-5.69 361.44) rotate(-30.62)"/>
    <rect class="d" x="65.16" y="555.53" width="6.44" height="19.55" transform="translate(-473.57 454.51) rotate(-71.09)"/>
    <polygon class="d" points="193.02 355.21 169.88 381.55 170.77 395.33 184.55 394.44 207.69 368.1 202.86 363.85 181.48 388.19 176.78 388.49 176.48 383.8 197.86 359.46 193.02 355.21"/>
    <rect class="d" x="188.72" y="336.66" width="6.44" height="19.55" transform="translate(-180 269.71) rotate(-48.7)"/>
    <polygon class="b" points="727.26 278.22 733.88 296.77 691.22 311.98 693.38 318.04 736.04 302.84 736.04 302.84 742.1 300.68 736.86 285.96 748.46 287.47 756.56 310.18 746.73 313.68 744.26 306.74 738.2 308.9 742.83 321.9 764.78 314.08 753.2 281.59 727.26 278.22"/>
    <polygon class="b" points="121.12 439.51 131.62 422.84 169.94 446.97 173.37 441.53 135.05 417.39 129.6 413.96 121.28 427.19 115.28 417.13 128.13 396.73 136.96 402.29 133.03 408.52 138.48 411.95 145.83 400.27 126.11 387.85 107.74 417.04 121.12 439.51"/>
    <polygon class="b" points="457.88 536.84 473.85 525.31 500.37 562.01 505.59 558.24 479.06 521.54 479.06 521.54 475.29 516.32 462.63 525.47 460.83 513.9 480.37 499.78 486.48 508.24 480.51 512.55 484.28 517.77 495.46 509.68 481.82 490.8 453.86 511 457.88 536.84"/>
    <polygon class="b" points="333.95 200.04 349.69 211.89 322.44 248.06 327.59 251.93 354.83 215.76 354.83 215.76 358.7 210.62 346.22 201.22 356.74 196.09 376 210.59 369.72 218.92 363.84 214.49 359.97 219.63 370.99 227.94 385.01 209.32 357.46 188.57 333.95 200.04"/>
    <polygon class="d" points="381.16 90.75 375.66 101.18 363.88 101.63 362.45 99.37 357 102.8 360.41 108.2 379.62 107.47 388.58 90.47 385.18 85.06 379.73 88.49 381.16 90.75"/>
    <polygon class="d" points="357.25 91.11 362.75 80.68 374.53 80.23 376.3 83.04 381.75 79.61 378 73.66 358.79 74.39 349.83 91.39 353.57 97.35 359.02 93.92 357.25 91.11"/>
    <polygon class="d" points="80.19 206.85 73.66 216.67 61.9 215.92 60.71 213.52 54.94 216.38 57.78 222.1 76.96 223.33 87.61 207.33 84.77 201.6 79 204.46 80.19 206.85"/>
    <polygon class="d" points="56.38 204.78 62.91 194.97 74.67 195.72 76.15 198.69 81.91 195.83 78.79 189.53 59.61 188.3 48.96 204.31 52.08 210.61 57.85 207.75 56.38 204.78"/>
    <polygon class="d" points="722.39 430.89 711.17 427.28 708.69 415.75 710.67 413.96 706.35 409.19 701.61 413.48 705.66 432.27 723.96 438.15 728.7 433.86 724.38 429.09 722.39 430.89"/>
    <polygon class="d" points="717.9 407.41 729.12 411.02 731.61 422.54 729.15 424.77 733.47 429.54 738.68 424.82 734.63 406.03 716.34 400.14 711.12 404.86 715.44 409.64 717.9 407.41"/>
    <polygon class="d" points="174.24 53.95 162.53 55.3 155.51 45.83 156.58 43.37 150.67 40.81 148.13 46.67 159.57 62.12 178.67 59.92 181.21 54.06 175.31 51.5 174.24 53.95"/>
    <polygon class="d" points="160.46 34.42 172.17 33.08 179.19 42.55 177.87 45.59 183.77 48.15 186.57 41.7 175.13 26.26 156.03 28.45 153.23 34.9 159.14 37.47 160.46 34.42"/>
    <polygon class="d" points="397.73 403.02 391.55 413.06 379.76 412.72 378.49 410.36 372.83 413.42 375.87 419.05 395.08 419.6 405.16 403.23 402.13 397.61 396.46 400.67 397.73 403.02"/>
    <polygon class="d" points="373.86 401.78 380.04 391.74 391.83 392.08 393.4 395 399.07 391.94 395.73 385.75 376.51 385.2 366.43 401.56 369.77 407.76 375.44 404.7 373.86 401.78"/>
    <rect class="d" x="192.75" y="177.33" width="15.76" height="6.44" transform="translate(-33.4 84.19) rotate(-19.3)"/>
    <rect class="d" x="571.73" y="257.82" width="6.44" height="15.76" transform="translate(38.65 585.26) rotate(-54.3)"/>
    <rect class="d" x="531.68" y="88.64" width="6.44" height="15.76" transform="translate(10.66 172.44) rotate(-17.44)"/>
    <rect class="d" x="615.39" y="532.97" width="15.76" height="6.44" transform="translate(-37.06 74.98) rotate(-5.93)"/>
    <rect class="d" x="299.4" y="130.15" width="6.44" height="11.11" transform="translate(61.82 354.53) rotate(-63.69)"/>
    <polygon class="d" points="343.38 132.97 337.61 130.12 329.82 145.88 329.79 145.86 326.94 151.63 326.97 151.65 319.17 167.41 324.94 170.26 332.74 154.5 348.5 162.29 351.35 156.52 335.59 148.73 343.38 132.97"/>
    <rect class="d" x="700.89" y="143.55" width="11.11" height="6.44" transform="translate(-0.02 164.28) rotate(-12.51)"/>
    <polygon class="d" points="734.97 130.19 728.68 131.58 732.49 148.74 732.46 148.75 733.86 155.03 733.89 155.03 737.7 172.19 743.98 170.8 740.17 153.63 757.33 149.82 755.94 143.54 738.78 147.35 734.97 130.19"/>
    <rect class="d" x="30.17" y="30.24" width="6.44" height="11.11" transform="translate(-0.54 44.97) rotate(-48.7)"/>
    <polygon class="d" points="75.98 40.08 71.15 35.83 59.54 49.03 59.52 49.02 55.27 53.85 55.3 53.87 43.69 67.08 48.53 71.33 60.13 58.12 73.34 69.72 77.59 64.89 64.38 53.28 75.98 40.08"/>
    <rect class="d" x="611.84" y="406.78" width="41.48" height="6.44" transform="translate(-0.32 803.07) rotate(-63.69)"/>
    <polygon class="d" points="672.84 392.22 679.01 379.74 673.24 376.89 668.71 386.04 663.16 386.4 660.07 381.76 664.6 372.62 658.82 369.76 652.65 382.24 659.87 393.06 672.84 392.22"/>
    <polygon class="d" points="167.35 576.83 163.04 563.59 156.92 565.58 160.08 575.28 156.36 579.42 150.91 578.27 147.75 568.57 141.63 570.56 145.94 583.8 158.66 586.49 167.35 576.83"/>
    <rect class="d" x="463.7" y="177.35" width="6.44" height="41.48" transform="translate(-22.34 151.28) rotate(-16.82)"/>
    <polygon class="d" points="482.92 169.94 478.89 156.61 472.73 158.47 475.68 168.24 471.87 172.3 466.45 171.03 463.5 161.26 457.34 163.13 461.36 176.45 474.02 179.42 482.92 169.94"/>
    <rect class="d" x="672.38" y="67.67" width="6.44" height="41.48" transform="translate(106.73 447.35) rotate(-38.48)"/>
    <polygon class="d" points="678.28 62.43 669.62 51.53 664.58 55.54 670.92 63.52 668.88 68.7 663.38 69.52 657.03 61.54 651.99 65.54 660.65 76.44 673.51 74.52 678.28 62.43"/>
    <polygon class="b" points="553.64 492.93 582.53 481 571.61 454.56 605.74 440.48 600.85 452.24 606.8 454.71 615.9 432.8 593.99 423.69 591.52 429.64 603.28 434.52 563.21 451.07 574.12 477.51 551.18 486.98 553.64 492.93"/>
    <rect class="b" x="515.32" y="484.67" width="16.77" height="6.44" transform="translate(-131.55 244.51) rotate(-22.43)"/>
    <polygon class="d" points="580.77 35.95 574.24 45.77 562.47 45.02 561.29 42.62 555.52 45.48 558.36 51.2 577.54 52.43 588.19 36.43 585.35 30.7 579.58 33.56 580.77 35.95"/>
    <polygon class="d" points="556.96 33.88 563.49 24.06 575.25 24.81 576.72 27.79 582.49 24.93 579.37 18.63 560.19 17.4 549.54 33.4 552.66 39.71 558.43 36.85 556.96 33.88"/>
    <rect class="d" x="245.6" y="375.79" width="15.76" height="6.44" transform="translate(-60.65 71.18) rotate(-12.43)"/>
    <polygon class="d" points="252.12 38.4 249.12 73.33 258.02 83.89 268.58 75 271.57 40.06 265.16 39.51 262.39 71.79 258.79 74.82 255.76 71.22 258.53 38.95 252.12 38.4"/>
    <rect class="d" x="244.48" y="11.79" width="6.44" height="19.55" transform="translate(220.06 274.24) rotate(-85.1)"/>
    <rect class="d" x="371.11" y="553.58" width="11.11" height="6.44" transform="translate(-210.72 266.14) rotate(-29.57)"/>
    <polygon class="d" points="397.46 537.32 391.86 540.5 400.53 555.79 400.51 555.8 403.68 561.4 403.71 561.39 412.38 576.68 417.98 573.5 409.31 558.21 424.6 549.53 421.42 543.93 406.13 552.61 397.46 537.32"/>
    <rect class="d" x="431.93" y="228.58" width="11.11" height="6.44" transform="translate(-18.44 86.71) rotate(-9.94)"/>
    <polygon class="d" points="437.89 263.2 444.23 262.09 441.2 244.77 441.23 244.77 440.12 238.43 440.09 238.43 437.06 221.12 430.71 222.23 433.75 239.54 416.43 242.58 417.54 248.92 434.86 245.88 437.89 263.2"/>
    <path class="d" d="M184.7,412.3a10.52,10.52,0,0,1,12.2-1.91l4.69-4.69a16.92,16.92,0,0,0-23.5,23.5l4.69-4.69a10.51,10.51,0,0,1,1.92-12.21" transform="translate(15 7.72)"/>
    <path class="d" d="M199.53,427.14a10.51,10.51,0,0,1-12.2,1.92l-4.69,4.69a16.93,16.93,0,0,0,23.5-23.5l-4.69,4.69a10.5,10.5,0,0,1-1.92,12.2" transform="translate(15 7.72)"/>
    <rect class="c" x="15" y="7.72" width="841.89" height="595.28"/>
    <polygon class="d" points="234.44 284.8 243.19 292.7 240.72 304.23 238.17 305.05 240.15 311.18 246.23 309.21 250.26 290.42 236 277.53 229.91 279.5 231.89 285.62 234.44 284.8"/>
    <polygon class="d" points="228.89 308.05 220.14 300.15 222.61 288.62 225.77 287.6 223.79 281.48 217.09 283.64 213.07 302.44 227.33 315.32 234.02 313.16 232.04 307.03 228.89 308.05"/>
    <rect class="d" x="148.64" y="177.6" width="6.44" height="41.48" transform="translate(-82.01 227.57) rotate(-57.5)"/>
    <polygon class="d" points="144.22 178.21 132.48 170.73 129.03 176.16 137.63 181.64 137.39 187.2 132.45 189.77 123.84 184.28 120.39 189.72 132.13 197.19 143.66 191.19 144.22 178.21"/>
    <path class="d" d="M585.38,354.79a10.5,10.5,0,0,1,12.2-1.92l4.69-4.69a16.93,16.93,0,0,0-23.5,23.5l4.69-4.69a10.51,10.51,0,0,1,1.92-12.2" transform="translate(15 7.72)"/>
    <path class="d" d="M600.22,369.62A10.51,10.51,0,0,1,588,371.54l-4.69,4.69a16.93,16.93,0,0,0,23.51-23.5l-4.7,4.69a10.51,10.51,0,0,1-1.91,12.2" transform="translate(15 7.72)"/>
    <rect class="c" x="15" y="7.72" width="841.89" height="595.28"/>
    <rect class="d" x="506.52" y="557.57" width="41.48" height="6.44" transform="translate(-215.68 702.73) rotate(-56.81)"/>
    <polygon class="d" points="570.39 546.22 578.01 534.57 572.63 531.05 567.04 539.59 561.48 539.28 558.97 534.31 564.56 525.77 559.17 522.25 551.55 533.9 557.41 545.5 570.39 546.22"/>
    <rect class="d" x="354.39" y="300.75" width="41.48" height="6.44" transform="translate(-21.97 563.27) rotate(-70.42)"/>
    <polygon class="d" points="368.04 339.98 363.38 353.1 369.44 355.25 372.86 345.64 378.34 344.63 381.95 348.87 378.53 358.48 384.59 360.64 389.26 347.53 380.83 337.63 368.04 339.98"/>
    <path class="d" d="M530.6,154.24A10.49,10.49,0,0,1,532.1,142l-3.23-5.8a16.92,16.92,0,0,0,16.16,29l-3.22-5.8a10.5,10.5,0,0,1-11.21-5.18" transform="translate(15 7.72)"/>
    <path class="d" d="M548.93,144a10.5,10.5,0,0,1-1.5,12.26l3.23,5.8a16.93,16.93,0,0,0-16.17-29l3.23,5.8A10.51,10.51,0,0,1,548.93,144" transform="translate(15 7.72)"/>
    <path class="b" d="M510.66,30l-6.25-1.56a109.18,109.18,0,0,0-3,33.54l6.42-.42A102.43,102.43,0,0,1,510.66,30" transform="translate(15 7.72)"/>
    <rect class="c" x="15" y="7.72" width="841.89" height="595.28"/>
    <polygon class="b" points="393.13 7.72 385.51 43.72 364.72 39.32 337.4 46.91 339.83 34.05 333.8 32.78 331.16 45.26 329.14 55.88 364.93 45.94 390.48 51.35 399.71 7.72 393.13 7.72"/>
    <polygon class="b" points="312.44 7.72 306.95 33.68 326.17 37.74 327.5 31.44 314.58 28.71 319.02 7.72 312.44 7.72"/>
    <path class="d" d="M623,29.84l-3.12-3.38A25.11,25.11,0,0,1,615.05,0h-6.82a31.52,31.52,0,0,0,6.87,30.86l3.12,3.39-4.52,4.18,4.36,4.73L664.83,0h-9.49Z" transform="translate(15 7.72)"/>
    <path class="e" d="M193.46,15.49A102.66,102.66,0,0,1,197.69,79l-5.9-10.58-5.62,3.13,11.24,20.18L217.59,80.5l-3.13-5.63-10.57,5.9A109.13,109.13,0,0,0,193.11,0h-7.47a104,104,0,0,1,7.82,15.53" transform="translate(15 7.72)"/>
    <rect class="c" x="15" y="7.72" width="841.89" height="595.28"/>
    <polygon class="b" points="786.37 330.17 803.1 340.44 806.47 334.96 795.22 328.05 814.68 296.35 856.87 322.26 856.87 314.7 812.56 287.5 786.37 330.17"/>
    <polygon class="b" points="805.28 349.19 799.83 358.52 836.87 361.17 856.87 373.45 856.87 365.9 838.9 354.86 810.61 352.84 817.22 341.55 811.96 338.32 805.28 349.19"/>
    <path class="b" d="M785.63,466.11l5.49,3.36a102.58,102.58,0,0,1,50.75-42.16v-6.89a109.25,109.25,0,0,0-56.24,45.69" transform="translate(15 7.72)"/>
    <rect class="c" x="15" y="7.72" width="841.89" height="595.28"/>
    <polygon class="b" points="797.22 179.67 817.03 192.73 820.57 187.36 809.94 180.34 856.87 170.72 856.87 164.15 808.65 174.04 815.66 163.41 810.29 159.86 797.22 179.67"/>
    <polygon class="d" points="856.61 77.22 856.87 77.71 856.87 77.07 856.61 77.22"/>
    <polygon class="d" points="851.69 126.28 839.91 125.94 838.64 123.59 832.97 126.64 836.01 132.27 855.22 132.82 856.87 130.14 856.87 117.87 851.69 126.28"/>
    <polygon class="d" points="826.57 114.79 829.91 120.98 835.58 117.92 834 115 840.19 104.97 851.97 105.3 853.55 108.22 856.87 106.43 856.87 100.83 855.87 98.97 836.66 98.42 826.57 114.79"/>
    <polygon class="b" points="828.62 516.76 829.97 523.05 856.87 517.3 856.87 510.72 828.62 516.76"/>
    <path class="d" d="M808.47,573.15a31.71,31.71,0,0,0-9.42,22.09h6.45a25.27,25.27,0,0,1,6-16Z" transform="translate(15 7.72)"/>
    <path class="d" d="M819.38,566.16l-2.3-4.57-5.75,2.89,2.29,4.56h0l2.91,5.8h0l2.16,4.3,5.75-2.89-2.15-4.3a25.12,25.12,0,0,1,19.58,1.29v-7a31.41,31.41,0,0,0-22.49-.05" transform="translate(15 7.72)"/>
    <rect class="c" x="15" y="7.72" width="841.89" height="595.28"/>
    <polygon class="d" points="856.66 602.96 856.87 602.96 856.87 602.85 856.66 602.96"/>
    <polygon class="b" points="573.54 588.77 578.6 602.96 585.43 602.96 581.77 592.67 616.8 580.19 624.92 602.96 631.75 602.96 620.71 571.97 573.54 588.77"/>
    <path class="d" d="M444.18,578l-4.58.47-.63-6.13-6.41.66,2.29,22.27h6.47l-1.07-10.4,4.59-.47a25.11,25.11,0,0,1,23.3,10.87h7.44A31.55,31.55,0,0,0,444.18,578" transform="translate(15 7.72)"/>
    <path class="b" d="M216.53,581.83a102.68,102.68,0,0,1,59.09-23.7L267.38,567l4.72,4.38,15.71-16.94-16.94-15.71-4.38,4.72,8.88,8.23A109.14,109.14,0,0,0,195,595.24h8.2a102.81,102.81,0,0,1,13.31-13.41" transform="translate(15 7.72)"/>
    <rect class="c" x="15" y="7.72" width="841.89" height="595.28"/>
    <polygon class="d" points="76.64 602.96 83.44 602.96 89.38 585.63 83.29 583.55 76.64 602.96"/>
    <polygon class="d" points="62.8 602.96 69.61 602.96 77 581.39 70.91 579.3 62.8 602.96"/>
    <polygon class="d" points="157.63 593.99 160.55 602.96 167.32 602.96 163.75 592 157.63 593.99"/>
    <polygon class="d" points="674 583.4 683.67 602.96 690.85 602.96 679.77 580.55 674 583.4"/>
    <polygon class="e" points="35.54 536.72 48.2 538.14 15 564.66 15 572.9 52.22 543.17 50.8 555.83 57.2 556.54 59.84 532.96 36.26 530.33 35.54 536.72"/>
    <polygon class="d" points="481.28 7.72 489.94 23.03 488.69 27.57 484.15 26.31 473.63 7.72 466.23 7.72 479.87 31.8 493.17 35.49 496.86 22.18 488.67 7.72 481.28 7.72"/>
    <polygon class="b" points="771.01 83.94 788.65 92.71 768.48 133.25 774.25 136.12 794.41 95.58 797.28 89.81 783.29 82.86 792.7 75.89 814.28 86.63 809.64 95.96 803.05 92.68 800.18 98.45 812.53 104.59 822.91 83.73 792.03 68.37 771.01 83.94"/>
    <polygon class="b" points="99.04 7.72 111.82 40.72 117.83 38.4 105.94 7.72 99.04 7.72"/>
    <path class="e" d="M19,246.41A108.47,108.47,0,0,0,0,221.35v9.33a101.86,101.86,0,0,1,13.38,18.84Z" transform="translate(15 7.72)"/>
    <path class="d" d="M41.53,154.12l-5.64-2.46,1.85-4.23a31.59,31.59,0,0,0-13.37-40.1l2-4.68-5.89-2.58-2.05,4.68h0l-2.6,6h0l-1.93,4.4,5.9,2.58,1.93-4.4a25.13,25.13,0,0,1,10.07,31.57L30,149.08,0,136v7l39,17Z" transform="translate(15 7.72)"/>
    <path class="d" d="M12,103.41a31.56,31.56,0,0,0-12,1.13v6.78a25.16,25.16,0,0,1,9.27-1.63Z" transform="translate(15 7.72)"/>
    <path class="d" d="M335.38,573.45A17.06,17.06,0,1,0,304.14,576l5.69-3a10.62,10.62,0,1,1,6,5.09l-3.05-1-6.14,18.21h6.79l3.49-10.34a17.08,17.08,0,0,0,18.47-11.45" transform="translate(15 7.72)"/>
  </g>
</svg>
