<svg xmlns="http://www.w3.org/2000/svg" viewBox="0 0 1538.33 1087.48"><defs><style>.cls-1{opacity:0.1;}.cls-2{fill:#fff;}</style></defs><title>icon-layer3</title><g id="Warstwa_2" data-name="Warstwa 2"><g id="Warstwa_1-2" data-name="Warstwa 1"><g id="green" class="cls-1"><polygon class="cls-2" points="508.2 353.29 521.76 363.75 545.28 354.08 540.81 343.2 523.57 350.29 515.52 344.08 516.87 334 534.11 326.91 529.64 316.03 506.12 325.7 503.88 342.35 460.92 360.02 465.39 370.9 508.2 353.29"/><path class="cls-2" d="M436.59,385.17l-12.22,5,4.47,10.88,12.22-5a19.75,19.75,0,1,0-15-36.54l-12.22,5,4.48,10.88,12.22-5a8,8,0,0,1,6.08,14.78"/><polygon class="cls-2" points="1294.42 895.61 1292.16 912.59 1312.32 928.1 1319.49 918.78 1304.72 907.41 1306.06 897.33 1315.46 893.45 1330.23 904.82 1337.41 895.5 1317.25 879.98 1301.72 886.39 1264.91 858.06 1257.74 867.38 1294.42 895.61"/><path class="cls-2" d="M1231,849.61l-10.47-8.06-7.17,9.32,10.47,8.06a19.75,19.75,0,0,0,24.09-31.31l-10.47-8.06-7.17,9.32,10.47,8.06a8,8,0,1,1-9.75,12.66"/><polygon class="cls-2" points="79.08 794.97 95.91 798.17 112.51 778.9 103.59 771.22 91.43 785.34 81.44 783.45 78.08 773.85 90.25 759.72 81.34 752.04 64.74 771.31 70.28 787.17 39.96 822.36 48.87 830.04 79.08 794.97"/><path class="cls-2" d="M29.64,855.8l-8.62,10,8.91,7.68,8.62-10A19.75,19.75,0,1,0,8.62,837.69L0,847.7l8.91,7.68,8.62-10A8,8,0,1,1,29.64,855.8"/><polygon class="cls-2" points="618.87 844.46 631.02 832.39 624.52 807.8 613.15 810.8 617.91 828.83 610.69 835.99 600.88 833.33 596.12 815.3 584.75 818.31 591.24 842.9 607.45 847.3 619.31 892.21 630.68 889.21 618.87 844.46"/><path class="cls-2" d="M641,919.64l3.37,12.77,11.37-3-3.37-12.77a19.75,19.75,0,0,0-38.19,10.09l3.37,12.77,11.37-3-3.37-12.77A8,8,0,0,1,641,919.64"/><polygon class="cls-2" points="943.56 391.04 958.36 382.42 958.26 356.98 946.5 357.03 946.57 375.67 937.78 380.79 928.95 375.74 928.88 357.1 917.12 357.14 917.22 382.58 931.8 390.92 931.98 437.37 943.74 437.32 943.56 391.04"/><path class="cls-2" d="M946.11,469.38l.05,13.21,11.76,0-.05-13.21a19.75,19.75,0,0,0-39.5.15l.05,13.21,11.76,0-.05-13.21a8,8,0,0,1,16-.06"/><path class="cls-2" d="M746.44,346.91l-6.79-9,6.71-5.09A57.72,57.72,0,0,0,760.8,257l7.44-5.64L761.14,242l-7.44,5.64h0l-9.45,7.16h0l-7,5.3,7.1,9.38,7-5.3a45.93,45.93,0,0,1-12.1,59.34l-6.71,5.09-55.41-73.13,6.71-5.09a45.94,45.94,0,0,1,50.78-3.08l10-7.56A57.73,57.73,0,0,0,676.74,241L670,246.07l-6.79-9-9.38,7.11L737.07,354Z"/><path class="cls-2" d="M204.78,523.67,200.42,534l-7.76-3.27a57.72,57.72,0,0,0-72.93,25.44l-8.6-3.62-4.57,10.84,8.6,3.62h0l10.93,4.6h0l8.09,3.41,4.57-10.84-8.09-3.41a45.93,45.93,0,0,1,57.44-19.2l7.76,3.27-35.62,84.55-7.76-3.27a45.94,45.94,0,0,1-28.06-42.44l-11.54-4.86a57.73,57.73,0,0,0,35,58.14l7.76,3.27-4.37,10.37,10.84,4.57,53.48-127Z"/><path class="cls-2" d="M1400.12,398.77l-10.91,2.76-2.07-8.16a57.72,57.72,0,0,0-64.25-42.88l-2.29-9-11.4,2.89,2.29,9h0l2.91,11.49h0l2.16,8.51,11.4-2.89-2.16-8.51a45.93,45.93,0,0,1,49.93,34.27l2.07,8.16-88.94,22.53-2.07-8.16a45.94,45.94,0,0,1,17-48l-3.08-12.14a57.73,57.73,0,0,0-25.29,63l2.07,8.16-10.91,2.76,2.89,11.4L1403,410.17Z"/><path class="cls-2" d="M981.16,744.67l-6.72-9,6.75-5a57.72,57.72,0,0,0,15-75.76l7.48-5.58-7-9.43-7.48,5.58h0l-9.51,7.09h0l-7,5.25,7,9.43,7-5.25a45.93,45.93,0,0,1-12.57,59.25l-6.75,5-54.83-73.56,6.75-5a45.94,45.94,0,0,1,50.81-2.68l10-7.49a57.73,57.73,0,0,0-67.88.73l-6.75,5-6.72-9-9.43,7L971.73,751.7Z"/><polygon class="cls-2" points="1155.33 416.72 1187.95 471.86 1212.39 478.14 1218.66 453.69 1186.04 398.55 1175.92 404.54 1206.05 455.49 1203.92 463.82 1195.59 461.68 1165.45 410.73 1155.33 416.72"/><rect class="cls-2" x="1143.54" y="386.06" width="35.72" height="11.76" transform="translate(-37.75 645.92) rotate(-30.61)"/><polygon class="cls-2" points="325.2 634.44 282.9 682.56 284.52 707.74 309.7 706.12 352 658 343.17 650.24 304.09 694.7 295.51 695.25 294.95 686.67 334.03 642.21 325.2 634.44"/><rect class="cls-2" x="344.76" y="614.67" width="11.76" height="35.72" transform="translate(-355.94 478.28) rotate(-48.68)"/><polygon class="cls-2" points="669.09 151.32 659.04 170.37 637.52 171.19 634.91 167.05 624.96 173.32 631.18 183.2 666.27 181.87 682.67 150.81 676.45 140.92 666.49 147.19 669.09 151.32"/><polygon class="cls-2" points="625.42 151.97 635.47 132.92 657 132.1 660.23 137.23 670.18 130.97 663.34 120.09 628.24 121.42 611.85 152.48 618.69 163.36 628.65 157.1 625.42 151.97"/><polygon class="cls-2" points="119.11 363.31 107.17 381.24 85.68 379.86 83.51 375.48 72.97 380.7 78.15 391.17 113.2 393.41 132.66 364.18 127.48 353.71 116.94 358.93 119.11 363.31"/><polygon class="cls-2" points="75.6 359.5 87.54 341.58 109.03 342.95 111.72 348.39 122.27 343.17 116.56 331.65 81.51 329.4 62.05 358.64 67.75 370.16 78.29 364.94 75.6 359.5"/><polygon class="cls-2" points="1292.42 772.99 1271.92 766.39 1267.39 745.33 1271.01 742.05 1263.12 733.33 1254.46 741.17 1261.85 775.51 1295.29 786.27 1303.94 778.43 1296.05 769.71 1292.42 772.99"/><polygon class="cls-2" points="1284.23 730.09 1304.73 736.69 1309.27 757.75 1304.77 761.82 1312.66 770.54 1322.19 761.91 1314.8 727.58 1281.37 716.81 1271.84 725.44 1279.73 734.16 1284.23 730.09"/><polygon class="cls-2" points="291.04 83.98 269.64 86.43 256.82 69.12 258.77 64.64 247.98 59.95 243.33 70.66 264.23 98.88 299.13 94.89 303.78 84.18 292.99 79.49 291.04 83.98"/><polygon class="cls-2" points="265.87 48.28 287.27 45.83 300.09 63.14 297.67 68.7 308.46 73.39 313.58 61.6 292.68 33.38 257.78 37.37 252.66 49.16 263.45 53.85 265.87 48.28"/><polygon class="cls-2" points="699.22 721.91 687.92 740.24 666.39 739.62 664.07 735.32 653.71 740.9 659.26 751.18 694.36 752.19 712.8 722.3 707.25 712.02 696.9 717.6 699.22 721.91"/><polygon class="cls-2" points="655.6 719.63 666.91 701.29 688.44 701.91 691.32 707.25 701.67 701.67 695.57 690.35 660.46 689.34 642.03 719.23 648.13 730.55 658.48 724.96 655.6 719.63"/><path class="cls-2" d="M335.32,240a25.69,25.69,0,0,1,26.82,42.24l-2,2,2,15.31-10.68,3.74-8-13.23-2.84-.35A25.69,25.69,0,0,1,335.32,240m1,60.94,10,16.65,28.74-10.06-2.55-19.25A37.45,37.45,0,1,0,336.33,301"/><rect class="cls-2" x="352.2" y="323.55" width="28.8" height="11.76" transform="translate(-88.23 139.57) rotate(-19.29)"/><path class="cls-2" d="M995.2,562.12a25.69,25.69,0,0,1,19.22-46.19l2.83.47L1028.62,506l9.18,6.6-6.28,14.11,1.34,2.53a25.69,25.69,0,0,1-37.67,32.93m49.34-35.78,7.89-17.75-24.72-17.78L1013.41,504a37.45,37.45,0,1,0,31.14,22.39"/><rect class="cls-2" x="1044.62" y="470.82" width="11.76" height="28.8" transform="translate(43.27 1054.84) rotate(-54.28)"/><path class="cls-2" d="M1067.8,147.71a25.69,25.69,0,0,1-43.09,25.43l-2-2.07-15.36,1.53L1004,161.81l13.48-7.52.44-2.83a25.69,25.69,0,0,1,49.89-3.74m-60.94-1-17,9.46L999,185.25l19.33-1.92a37.45,37.45,0,1,0-11.48-36.59"/><rect class="cls-2" x="971.54" y="161.66" width="11.76" height="28.8" transform="translate(-7.88 300.68) rotate(-17.42)"/><path class="cls-2" d="M1128.91,885.26a25.69,25.69,0,0,1,16.32,47.3l-2.43,1.53-1.56,15.36L1130,950.61l-4.68-14.71-2.69-1a25.69,25.69,0,0,1,6.28-49.64m-13.12,59.52,5.89,18.51,30.29-3.14,2-19.32a37.45,37.45,0,1,0-38.15,3.95"/><rect class="cls-2" x="1124.26" y="973.6" width="28.8" height="11.76" transform="translate(-94.85 122.53) rotate(-5.91)"/><rect class="cls-2" x="547.08" y="237.4" width="11.76" height="20.31" transform="translate(85.83 633.35) rotate(-63.67)"/><polygon class="cls-2" points="600.05 228.45 589.51 223.23 575.26 252.02 575.22 252 570 262.54 570.05 262.56 555.8 291.36 566.35 296.57 580.59 267.78 609.38 282.03 614.6 271.49 585.81 257.24 600.05 228.45"/><rect class="cls-2" x="1280.7" y="262.08" width="20.31" height="11.76" transform="translate(-27.4 285.69) rotate(-12.5)"/><polygon class="cls-2" points="1315.56 223.56 1304.07 226.11 1311.02 257.47 1310.97 257.48 1313.52 268.96 1313.57 268.95 1320.52 300.31 1332 297.77 1325.05 266.41 1356.41 259.45 1353.87 247.97 1322.51 254.92 1315.56 223.56"/><rect class="cls-2" x="165.2" y="184.69" width="11.76" height="20.31" transform="translate(-88.21 194.69) rotate(-48.68)"/><polygon class="cls-2" points="221.51 188.57 212.68 180.81 191.47 204.93 191.43 204.9 183.66 213.73 183.7 213.76 162.49 237.89 171.32 245.66 192.53 221.53 216.66 242.74 224.43 233.91 200.3 212.7 221.51 188.57"/><path class="cls-2" d="M1462.67,425.81l-3.94-4.37L1419.35,457l7.88,8.73,31.06-28A31.17,31.17,0,1,0,1445.92,412l11.76.29a19.23,19.23,0,0,1,6.4-13.93,19.41,19.41,0,1,1-1.41,27.41"/><path class="cls-2" d="M69.65,662.58l4.06-4.25L35.37,621.68l-8.13,8.5,30.24,28.91a31.17,31.17,0,1,0,24.66-14.23l.58,11.75a19.41,19.41,0,1,1-13.07,6"/><rect class="cls-2" x="1117.84" y="743.03" width="75.8" height="11.76" transform="translate(-28.03 1452.68) rotate(-63.68)"/><polygon class="cls-2" points="1201.9 702.32 1213.18 679.52 1202.64 674.31 1194.37 691.02 1184.22 691.67 1178.58 683.21 1186.85 666.5 1176.3 661.28 1165.03 684.08 1178.2 703.84 1201.9 702.32"/><rect class="cls-2" x="847.27" y="323.72" width="11.76" height="75.8" transform="translate(-68.11 262.03) rotate(-16.8)"/><polygon class="cls-2" points="854.99 296.06 847.64 271.71 836.38 275.12 841.76 292.96 834.8 300.38 824.9 298.06 819.51 280.21 808.25 283.61 815.6 307.95 838.73 313.38 854.99 296.06"/><rect class="cls-2" x="1198.62" y="103.43" width="11.76" height="75.8" transform="translate(173.51 779.95) rotate(-38.47)"/><polygon class="cls-2" points="1182.01 79.72 1166.19 59.81 1156.97 67.13 1168.57 81.72 1164.84 91.18 1154.78 92.68 1143.18 78.08 1133.97 85.4 1149.8 105.31 1173.29 101.82 1182.01 79.72"/><path class="cls-2" d="M1042.66,383.42l-5.18-2.8-25.21,46.67,10.35,5.59,19.88-36.81a31.17,31.17,0,1,0-20.24-20l11.18-3.66a19.23,19.23,0,0,1,1.37-15.27,19.41,19.41,0,1,1,7.85,26.3"/><path class="cls-2" d="M880.68,796l-5.83-.75-6.77,52.61,11.67,1.5,5.34-41.5A31.17,31.17,0,1,0,859,796.5l9.12-7.43a19.41,19.41,0,1,1,12.56,7"/><path class="cls-2" d="M387.89,936.2l5.82.84,7.6-52.5-11.64-1.69-6,41.4a31.18,31.18,0,1,0,25.9,11.83l-9.23,7.29a19.24,19.24,0,0,1,4,14.81,19.41,19.41,0,1,1-16.43-22"/><path class="cls-2" d="M707.49,866.25a19.19,19.19,0,0,1,22.3-3.49l8.58-8.57a30.93,30.93,0,0,0-43,42.93l8.58-8.57a19.2,19.2,0,0,1,3.51-22.29"/><path class="cls-2" d="M734.6,893.37a19.2,19.2,0,0,1-22.3,3.49l-8.58,8.57a30.93,30.93,0,0,0,43-42.93l-8.58,8.57a19.2,19.2,0,0,1-3.51,22.29"/><path class="cls-2" d="M1459,61.55a19.19,19.19,0,0,1,2.75-22.4l-5.89-10.6a30.93,30.93,0,0,0,29.52,53.08L1479.49,71A19.2,19.2,0,0,1,1459,61.55"/><path class="cls-2" d="M1492.52,42.92a19.2,19.2,0,0,1-2.75,22.4l5.89,10.6a30.93,30.93,0,0,0-29.52-53.08l5.89,10.6a19.2,19.2,0,0,1,20.48,9.48"/><path class="cls-2" d="M151.74,451.61a19.19,19.19,0,0,1,2.75-22.4l-5.89-10.6a30.93,30.93,0,0,0,29.52,53.08l-5.89-10.6a19.2,19.2,0,0,1-20.48-9.48"/><path class="cls-2" d="M185.25,433a19.2,19.2,0,0,1-2.75,22.4l5.89,10.6a30.93,30.93,0,0,0-29.52-53.08l5.89,10.6A19.2,19.2,0,0,1,185.25,433"/><polygon class="cls-2" points="1034.01 33.91 1022.07 51.83 1000.58 50.46 998.4 46.08 987.87 51.3 993.05 61.76 1028.1 64.01 1047.56 34.77 1042.38 24.31 1031.84 29.53 1034.01 33.91"/><polygon class="cls-2" points="990.5 30.1 1002.44 12.17 1023.93 13.55 1026.62 18.98 1037.16 13.77 1031.46 2.25 996.41 0 976.94 29.23 982.65 40.75 993.19 35.53 990.5 30.1"/><path class="cls-2" d="M629.63,471.54a19.19,19.19,0,0,1,22.3-3.49l8.58-8.57a30.93,30.93,0,0,0-43,42.93l8.58-8.57a19.2,19.2,0,0,1,3.51-22.29"/><path class="cls-2" d="M656.73,498.66a19.2,19.2,0,0,1-22.3,3.49l-8.58,8.57a30.93,30.93,0,0,0,43-42.93l-8.58,8.57a19.2,19.2,0,0,1-3.51,22.29"/><path class="cls-2" d="M574.12,648.32a17.74,17.74,0,0,0-22.47,11.08l-7.54,22.2L539.91,694l11.14,3.78,4.2-12.37,7.54-22.2A6,6,0,1,1,574.06,667l-7.54,22.2-8,23.55-11.27-3.83,0,0-11.14-3.78-3.8,11.19,11.21,3.8-15.06,44.38,11.14,3.78,15.06-44.38,11.21,3.8L577.66,693l7.54-22.2a17.74,17.74,0,0,0-11.08-22.47"/><path class="cls-2" d="M1399.12,767.73a17.74,17.74,0,0,0,23.3-9.2l9.33-21.51,5.2-12-10.79-4.68-5.2,12-9.33,21.51a6,6,0,0,1-10.92-4.74l9.33-21.51,9.9-22.82,10.92,4.74,0,0,10.79,4.68,4.7-10.84-10.86-4.71,18.66-43L1443.35,651l-18.66,43-10.86-4.71-14.58,33.61-9.33,21.51a17.74,17.74,0,0,0,9.2,23.3"/><path class="cls-2" d="M805.84,63.82a17.74,17.74,0,0,0-25,2.2L765.82,84l-8.39,10,9,7.56,8.39-10,15.06-18A6,6,0,1,1,799,81.22L784,99.19l-16,19.06-9.12-7.65,0,0-9-7.56-7.59,9.05,9.07,7.6-30.11,35.92,9,7.55,30.1-35.92,9.07,7.6L793,106.75l15.06-18a17.74,17.74,0,0,0-2.2-25"/><path class="cls-2" d="M442.69,599.57a25.69,25.69,0,0,1,21.57,45.14L462,646.51l.19,15.44-11,2.43-6.32-14.09-2.78-.69a25.69,25.69,0,0,1,.62-50M436.4,660.2l7.95,17.72,29.74-6.55L473.86,652a37.45,37.45,0,1,0-37.45,8.24"/><rect class="cls-2" x="448.65" y="686.19" width="28.8" height="11.76" transform="translate(-137.97 115.75) rotate(-12.42)"/><polygon class="cls-2" points="433.34 55.59 427.85 119.42 444.1 138.73 463.4 122.48 468.89 58.65 457.17 57.64 452.1 116.62 445.52 122.15 439.99 115.58 445.06 56.6 433.34 55.59"/><rect class="cls-2" x="446.8" y="21.1" width="11.76" height="35.72" transform="translate(375.09 486.63) rotate(-85.09)"/><rect class="cls-2" x="677.9" y="1011.12" width="20.31" height="11.76" transform="translate(-412.12 471.72) rotate(-29.56)"/><polygon class="cls-2" points="698.65 967.3 688.42 973.1 704.26 1001.05 704.21 1001.07 710.01 1011.3 710.06 1011.28 725.9 1039.22 736.14 1033.42 720.29 1005.48 748.24 989.63 742.43 979.4 714.49 995.24 698.65 967.3"/><rect class="cls-2" x="789.2" y="417.32" width="20.31" height="11.76" transform="translate(-60.96 144.06) rotate(-9.92)"/><polygon class="cls-2" points="772.67 466.45 784.26 464.42 778.73 432.78 778.78 432.77 776.75 421.18 776.7 421.19 771.17 389.55 759.58 391.58 765.11 423.22 733.47 428.75 735.5 440.34 767.14 434.81 772.67 466.45"/><path class="cls-2" d="M337.36,752.88a19.19,19.19,0,0,1,22.3-3.49l8.58-8.57a30.93,30.93,0,0,0-43,42.93l8.58-8.57a19.2,19.2,0,0,1,3.51-22.29"/><path class="cls-2" d="M364.47,780a19.2,19.2,0,0,1-22.3,3.49l-8.58,8.57a30.93,30.93,0,0,0,43-42.93L368,757.71A19.2,19.2,0,0,1,364.47,780"/><polygon class="cls-2" points="400.91 505.81 416.89 520.26 412.37 541.32 407.72 542.82 411.33 554.01 422.45 550.43 429.82 516.09 403.76 492.53 392.65 496.12 396.26 507.32 400.91 505.81"/><polygon class="cls-2" points="390.75 548.29 374.78 533.85 379.3 512.79 385.07 510.93 381.45 499.74 369.22 503.68 361.85 538.02 387.9 561.58 400.14 557.63 396.53 546.43 390.75 548.29"/><rect class="cls-2" x="271.58" y="324.01" width="11.76" height="75.8" transform="translate(-176.86 401.33) rotate(-57.48)"/><polygon class="cls-2" points="236.13 311 214.68 297.32 208.36 307.24 224.08 317.26 223.63 327.43 214.61 332.12 198.89 322.1 192.57 332.01 214.01 345.69 235.09 334.73 236.13 311"/><path class="cls-2" d="M1069.52,648a19.19,19.19,0,0,1,22.3-3.49l8.58-8.57a30.93,30.93,0,0,0-43,42.93l8.58-8.57a19.2,19.2,0,0,1,3.51-22.29"/><path class="cls-2" d="M1096.62,675.11a19.2,19.2,0,0,1-22.3,3.49l-8.58,8.57a30.93,30.93,0,0,0,43-42.93l-8.58,8.57a19.2,19.2,0,0,1-3.51,22.29"/><rect class="cls-2" x="925.32" y="1018.49" width="75.8" height="11.76" transform="translate(-421.4 1269.23) rotate(-56.79)"/><polygon class="cls-2" points="1014.63 983.65 1028.56 962.37 1018.72 955.93 1008.51 971.53 998.36 970.96 993.77 961.88 1003.98 946.28 994.14 939.84 980.21 961.12 990.92 982.33 1014.63 983.65"/><rect class="cls-2" x="647.49" y="549.15" width="75.8" height="11.76" transform="translate(-67.37 1014.57) rotate(-70.4)"/><polygon class="cls-2" points="645 606.71 636.47 630.67 647.55 634.61 653.81 617.05 663.81 615.21 670.4 622.96 664.15 640.52 675.23 644.47 683.76 620.51 668.37 602.42 645 606.71"/><path class="cls-2" d="M969.52,281.52a19.19,19.19,0,0,1,2.75-22.4l-5.89-10.6a30.93,30.93,0,0,0,29.52,53.08L990,291a19.2,19.2,0,0,1-20.48-9.48"/><path class="cls-2" d="M1003,262.89a19.2,19.2,0,0,1-2.75,22.4l5.89,10.6a30.93,30.93,0,0,0-29.52-53.08l5.9,10.6a19.2,19.2,0,0,1,20.48,9.48"/><polygon class="cls-2" points="1537.84 126.84 1538.33 127.74 1538.33 126.58 1537.84 126.84"/><polygon class="cls-2" points="1537.66 1087.48 1538.06 1087.48 1538.06 1087.28 1537.66 1087.48"/><polygon class="cls-2" points="1473.42 583.61 1471.16 600.59 1491.32 616.1 1498.49 606.78 1483.72 595.41 1485.06 585.33 1494.46 581.45 1509.23 592.82 1516.41 583.5 1496.25 567.98 1480.72 574.39 1443.91 546.06 1436.74 555.38 1473.42 583.61"/><path class="cls-2" d="M1410,537.61l-10.47-8.06-7.17,9.32,10.47,8.06a19.75,19.75,0,0,0,24.09-31.31l-10.47-8.06-7.17,9.32,10.47,8.06a8,8,0,1,1-9.75,12.66"/><polygon class="cls-2" points="74.83 998.42 123.2 1040.42 148.38 1038.65 146.6 1013.48 98.22 971.48 90.51 980.36 135.21 1019.17 135.81 1027.74 127.24 1028.35 82.54 989.54 74.83 998.42"/><rect class="cls-2" x="54.9" y="967.12" width="35.72" height="11.76" transform="translate(-709.68 390.06) rotate(-49.04)"/></g></g></g></svg>